<svg width="966" height="730" viewBox="0 0 966 730" fill="none" xmlns="http://www.w3.org/2000/svg">
<g clip-path="url(#clip0_70_25)">
<path d="M445.394 155.565H207.136C205.967 155.563 204.845 155.098 204.018 154.271C203.191 153.444 202.726 152.322 202.724 151.152V92.0511C202.726 90.8813 203.191 89.7599 204.018 88.9327C204.845 88.1056 205.967 87.6403 207.136 87.6389H445.394C446.563 87.6403 447.685 88.1056 448.512 88.9327C449.339 89.7599 449.804 90.8813 449.806 92.0511V151.152C449.804 152.322 449.339 153.444 448.512 154.271C447.685 155.098 446.563 155.563 445.394 155.565V155.565ZM207.136 89.4037C206.435 89.4045 205.762 89.6837 205.265 90.18C204.769 90.6763 204.49 91.3492 204.489 92.0511V151.152C204.49 151.854 204.769 152.527 205.265 153.024C205.762 153.52 206.435 153.799 207.136 153.8H445.394C446.095 153.799 446.768 153.52 447.265 153.024C447.761 152.527 448.04 151.854 448.041 151.152V92.0511C448.04 91.3492 447.761 90.6763 447.265 90.18C446.768 89.6837 446.095 89.4045 445.394 89.4038L207.136 89.4037Z" fill="#424F66"/>
<path d="M244.157 137.307C254.083 137.307 262.13 129.26 262.13 119.334C262.13 109.408 254.083 101.361 244.157 101.361C234.231 101.361 226.184 109.408 226.184 119.334C226.184 129.26 234.231 137.307 244.157 137.307Z" fill="#1E8FFF"/>
<path d="M285.665 107.352C284.871 107.352 284.109 107.668 283.547 108.23C282.986 108.791 282.67 109.553 282.67 110.348C282.67 111.142 282.986 111.904 283.547 112.466C284.109 113.028 284.871 113.343 285.665 113.343H426.88C427.675 113.343 428.437 113.028 428.998 112.466C429.56 111.904 429.876 111.142 429.876 110.348C429.876 109.553 429.56 108.791 428.998 108.23C428.437 107.668 427.675 107.352 426.88 107.352H285.665Z" fill="#424F66"/>
<path d="M285.665 125.325C284.871 125.325 284.109 125.641 283.547 126.203C282.986 126.764 282.67 127.526 282.67 128.321C282.67 129.115 282.986 129.877 283.547 130.439C284.109 131.001 284.871 131.316 285.665 131.316H346.431C346.824 131.317 347.215 131.24 347.579 131.09C347.943 130.939 348.274 130.719 348.552 130.441C348.831 130.162 349.052 129.832 349.203 129.468C349.354 129.104 349.432 128.714 349.432 128.321C349.432 127.927 349.354 127.537 349.203 127.173C349.052 126.809 348.831 126.479 348.552 126.201C348.274 125.922 347.943 125.702 347.579 125.552C347.215 125.401 346.824 125.324 346.431 125.325H285.665Z" fill="#424F66"/>
<path d="M341.957 366.234H236.064C234.895 366.233 233.773 365.768 232.946 364.94C232.119 364.113 231.654 362.992 231.652 361.822V251.54C231.654 250.37 232.119 249.248 232.946 248.421C233.773 247.594 234.895 247.129 236.064 247.127H341.957C343.126 247.129 344.248 247.594 345.075 248.421C345.902 249.248 346.367 250.37 346.369 251.54V361.822C346.367 362.992 345.902 364.113 345.075 364.94C344.248 365.768 343.126 366.233 341.957 366.234ZM236.064 248.892C235.363 248.893 234.69 249.172 234.193 249.669C233.697 250.165 233.418 250.838 233.417 251.54V361.822C233.418 362.524 233.697 363.197 234.193 363.693C234.69 364.189 235.363 364.469 236.064 364.469H341.957C342.659 364.469 343.331 364.189 343.828 363.693C344.324 363.197 344.603 362.524 344.604 361.822V251.54C344.603 250.838 344.324 250.165 343.828 249.669C343.331 249.172 342.659 248.893 341.957 248.892H236.064Z" fill="#424F66"/>
<path d="M258.628 269.87C257.833 269.87 257.072 270.185 256.51 270.747C255.948 271.309 255.632 272.071 255.632 272.865C255.632 273.66 255.948 274.421 256.51 274.983C257.072 275.545 257.833 275.861 258.628 275.861H319.393C320.188 275.861 320.95 275.545 321.511 274.983C322.073 274.421 322.389 273.66 322.389 272.865C322.389 272.071 322.073 271.309 321.511 270.747C320.95 270.185 320.188 269.87 319.393 269.87H258.628Z" fill="#424F66"/>
<path d="M258.628 287.518C258.234 287.518 257.844 287.595 257.48 287.745C257.116 287.895 256.785 288.116 256.506 288.394C256.228 288.672 256.006 289.002 255.856 289.366C255.705 289.73 255.627 290.12 255.627 290.514C255.627 290.908 255.705 291.298 255.856 291.661C256.006 292.025 256.228 292.356 256.506 292.634C256.785 292.912 257.116 293.133 257.48 293.283C257.844 293.433 258.234 293.51 258.628 293.509H319.393C320.188 293.509 320.95 293.194 321.511 292.632C322.073 292.07 322.389 291.308 322.389 290.514C322.389 289.719 322.073 288.957 321.511 288.396C320.95 287.834 320.188 287.518 319.393 287.518H258.628Z" fill="#424F66"/>
<path d="M289.011 343.492C285.282 343.492 281.636 342.386 278.535 340.314C275.435 338.242 273.018 335.298 271.591 331.852C270.164 328.407 269.79 324.616 270.518 320.958C271.245 317.301 273.041 313.941 275.678 311.304C278.315 308.667 281.675 306.872 285.332 306.144C288.99 305.417 292.781 305.79 296.226 307.217C299.672 308.644 302.616 311.061 304.688 314.162C306.76 317.262 307.866 320.908 307.866 324.637C307.86 329.636 305.872 334.428 302.337 337.963C298.802 341.498 294.01 343.486 289.011 343.492V343.492Z" fill="#1E8FFF"/>
<path d="M515.426 0H621.318C622.488 0.00137356 623.609 0.466665 624.436 1.29381C625.264 2.12095 625.729 3.24241 625.73 4.41216V114.695C625.729 115.864 625.264 116.986 624.436 117.813C623.609 118.64 622.488 119.105 621.318 119.107H515.426C514.256 119.105 513.135 118.64 512.307 117.813C511.48 116.986 511.015 115.864 511.014 114.695V4.41216C511.015 3.24241 511.48 2.12095 512.307 1.29381C513.135 0.466665 514.256 0.00137356 515.426 0V0ZM621.318 117.342C622.02 117.341 622.693 117.062 623.189 116.566C623.685 116.069 623.965 115.397 623.965 114.695V4.41216C623.965 3.71029 623.685 3.03738 623.189 2.54108C622.693 2.04479 622.02 1.76563 621.318 1.76486H515.426C514.724 1.76563 514.051 2.04479 513.555 2.54108C513.058 3.03738 512.779 3.71029 512.778 4.41216V114.695C512.779 115.397 513.058 116.069 513.555 116.566C514.051 117.062 514.724 117.341 515.426 117.342H621.318Z" fill="#424F66"/>
<path d="M598.755 96.3645C599.549 96.3645 600.311 96.0489 600.873 95.4871C601.434 94.9254 601.75 94.1635 601.75 93.369C601.75 92.5746 601.434 91.8126 600.873 91.2509C600.311 90.6891 599.549 90.3735 598.755 90.3735H537.989C537.195 90.3735 536.433 90.6891 535.871 91.2509C535.309 91.8126 534.994 92.5746 534.994 93.369C534.994 94.1635 535.309 94.9254 535.871 95.4871C536.433 96.0489 537.195 96.3645 537.989 96.3645H598.755Z" fill="#424F66"/>
<path d="M598.755 78.7158C599.549 78.7158 600.311 78.4002 600.873 77.8385C601.434 77.2767 601.75 76.5148 601.75 75.7203C601.75 74.9259 601.434 74.164 600.873 73.6022C600.311 73.0405 599.549 72.7249 598.755 72.7249H537.989C537.195 72.7249 536.433 73.0405 535.871 73.6022C535.309 74.164 534.994 74.9259 534.994 75.7203C534.994 76.5148 535.309 77.2767 535.871 77.8385C536.433 78.4002 537.195 78.7158 537.989 78.7158H598.755Z" fill="#424F66"/>
<path d="M568.372 22.7422C572.101 22.7422 575.746 23.848 578.847 25.9198C581.948 27.9917 584.364 30.9364 585.792 34.3818C587.219 37.8271 587.592 41.6182 586.865 45.2757C586.137 48.9333 584.341 52.2929 581.704 54.9299C579.067 57.5668 575.708 59.3626 572.05 60.0901C568.393 60.8176 564.602 60.4442 561.156 59.0171C557.711 57.59 554.766 55.1733 552.694 52.0726C550.622 48.9719 549.517 45.3265 549.517 41.5973C549.522 36.5983 551.511 31.8057 555.045 28.271C558.58 24.7362 563.373 22.7478 568.372 22.7422Z" fill="#1E8FFF"/>
<path d="M204.085 228.158C222.823 213.645 244.716 203.748 267.99 199.269C291.449 194.798 315.64 196.041 338.518 202.893C350.018 206.317 361.067 211.105 371.43 217.154C381.989 223.326 391.53 230.925 400.71 238.97C410.009 247.12 419.003 255.633 428.711 263.306C456.426 285.46 490.833 297.563 526.315 297.641C529.246 297.646 532.175 297.565 535.102 297.399C536.689 297.311 536.7 294.831 535.102 294.919C498.935 296.911 463.219 286.118 434.207 264.431C424.145 256.907 414.958 248.304 405.579 239.968C396.486 231.886 387.149 224.024 376.833 217.531C351.599 201.634 322.243 193.519 292.426 194.198C262.61 194.878 233.654 204.322 209.171 221.353C206.843 222.971 204.569 224.663 202.332 226.404C201.074 227.383 202.84 229.127 204.085 228.158V228.158Z" fill="#3F3D56"/>
<path d="M202.769 240.142C209.885 240.142 215.654 234.373 215.654 227.257C215.654 220.14 209.885 214.371 202.769 214.371C195.652 214.371 189.883 220.14 189.883 227.257C189.883 234.373 195.652 240.142 202.769 240.142Z" fill="#3F3D56"/>
<path d="M682.146 411.231C689.263 411.231 695.032 405.461 695.032 398.345C695.032 391.228 689.263 385.459 682.146 385.459C675.029 385.459 669.26 391.228 669.26 398.345C669.26 405.461 675.029 411.231 682.146 411.231Z" fill="#3F3D56"/>
<path d="M749.652 324.941H539.395C538.225 324.94 537.104 324.475 536.276 323.647C535.449 322.82 534.984 321.699 534.983 320.529V211.129C534.984 209.959 535.449 208.838 536.276 208.011C537.104 207.183 538.225 206.718 539.395 206.717H749.652C750.822 206.718 751.943 207.183 752.77 208.011C753.597 208.838 754.063 209.959 754.064 211.129V320.529C754.063 321.699 753.597 322.82 752.77 323.647C751.943 324.475 750.822 324.94 749.652 324.941ZM539.395 208.482C538.693 208.482 538.02 208.762 537.524 209.258C537.027 209.754 536.748 210.427 536.747 211.129V320.529C536.748 321.231 537.027 321.904 537.524 322.4C538.02 322.896 538.693 323.176 539.395 323.176H749.652C750.354 323.176 751.027 322.896 751.523 322.4C752.019 321.904 752.298 321.231 752.299 320.529V211.129C752.298 210.427 752.019 209.754 751.523 209.258C751.027 208.762 750.354 208.482 749.652 208.482H539.395Z" fill="#424F66"/>
<path d="M574.65 263.444C584.576 263.444 592.623 255.397 592.623 245.471C592.623 235.545 584.576 227.499 574.65 227.499C564.724 227.499 556.677 235.545 556.677 245.471C556.677 255.397 564.724 263.444 574.65 263.444Z" fill="#1E8FFF"/>
<path d="M616.159 233.49C615.765 233.489 615.375 233.566 615.011 233.716C614.647 233.866 614.316 234.087 614.037 234.365C613.758 234.643 613.537 234.974 613.386 235.337C613.235 235.701 613.158 236.091 613.158 236.485C613.158 236.879 613.235 237.269 613.386 237.633C613.537 237.996 613.758 238.327 614.037 238.605C614.316 238.883 614.647 239.104 615.011 239.254C615.375 239.404 615.765 239.481 616.159 239.48H729.374C730.168 239.48 730.93 239.165 731.492 238.603C732.054 238.041 732.369 237.279 732.369 236.485C732.369 235.691 732.054 234.929 731.492 234.367C730.93 233.805 730.168 233.49 729.374 233.49H616.159Z" fill="#424F66"/>
<path d="M616.159 251.462C615.765 251.462 615.375 251.539 615.011 251.689C614.647 251.839 614.316 252.06 614.037 252.338C613.758 252.616 613.537 252.946 613.386 253.31C613.235 253.674 613.158 254.064 613.158 254.458C613.158 254.852 613.235 255.242 613.386 255.605C613.537 255.969 613.758 256.3 614.037 256.578C614.316 256.856 614.647 257.077 615.011 257.227C615.375 257.377 615.765 257.454 616.159 257.453H676.924C677.718 257.453 678.48 257.138 679.042 256.576C679.604 256.014 679.919 255.252 679.919 254.458C679.919 253.663 679.604 252.902 679.042 252.34C678.48 251.778 677.718 251.462 676.924 251.462H616.159Z" fill="#424F66"/>
<path d="M560.865 280.196C558.586 280.196 556.732 281.54 556.732 283.191C556.732 284.843 558.586 286.187 560.865 286.187H727.698C729.976 286.187 731.83 284.843 731.83 283.191C731.83 281.54 729.976 280.196 727.698 280.196H560.865Z" fill="#424F66"/>
<path d="M560.865 298.168C558.586 298.168 556.732 299.512 556.732 301.164C556.732 302.815 558.586 304.159 560.865 304.159H727.698C729.976 304.159 731.83 302.815 731.83 301.164C731.83 299.512 729.976 298.168 727.698 298.168H560.865Z" fill="#424F66"/>
<path d="M522.493 410.341C534.355 405.196 547.599 409.682 558.779 414.424C564.537 416.867 570.234 419.474 576.193 421.403C581.206 423.021 586.34 424.238 591.546 425.041C601.994 426.642 612.619 426.707 623.086 425.234C633.605 423.767 643.857 420.786 653.523 416.384C663.135 412.027 672.019 406.219 679.865 399.161C680.863 398.26 681.842 397.337 682.802 396.394C683.943 395.276 682.19 393.523 681.048 394.641C673.493 402.006 664.82 408.129 655.35 412.782C645.92 417.419 635.861 420.651 625.494 422.373C615.093 424.127 604.487 424.31 594.032 422.917C588.816 422.211 583.665 421.092 578.627 419.568C572.841 417.686 567.165 415.481 561.625 412.964C550.34 408.118 537.802 403.372 525.402 406.715C523.981 407.108 522.59 407.604 521.242 408.2C519.782 408.834 521.043 410.97 522.493 410.341V410.341Z" fill="#3F3D56"/>
<path d="M517.91 440.752H418.574L441.951 400.261C442.37 399.536 442.973 398.933 443.699 398.514C444.424 398.095 445.247 397.874 446.085 397.874C446.923 397.874 447.747 398.095 448.472 398.514C449.198 398.933 449.801 399.536 450.22 400.261L460.206 417.558L477.186 388.148C477.711 387.239 478.465 386.485 479.374 385.96C480.283 385.435 481.313 385.159 482.363 385.159C483.412 385.159 484.442 385.435 485.351 385.96C486.26 386.485 487.014 387.239 487.539 388.148L517.91 440.752Z" fill="#1E8FFF"/>
<path d="M518.004 440.742H412.112C410.942 440.74 409.82 440.275 408.993 439.448C408.166 438.621 407.701 437.499 407.7 436.33V377.228C407.701 376.058 408.166 374.937 408.993 374.11C409.82 373.283 410.942 372.817 412.112 372.816H518.004C519.174 372.817 520.295 373.283 521.122 374.11C521.949 374.937 522.415 376.058 522.416 377.228V436.33C522.415 437.499 521.949 438.621 521.122 439.448C520.295 440.275 519.174 440.74 518.004 440.742ZM412.112 374.581C411.41 374.582 410.737 374.861 410.241 375.357C409.744 375.853 409.465 376.526 409.464 377.228V436.33C409.465 437.031 409.744 437.704 410.241 438.201C410.737 438.697 411.41 438.976 412.112 438.977H518.004C518.706 438.976 519.379 438.697 519.875 438.201C520.371 437.704 520.65 437.031 520.651 436.33V377.228C520.65 376.526 520.371 375.853 519.875 375.357C519.379 374.861 518.706 374.582 518.004 374.581H412.112Z" fill="#3F3D56"/>
<path d="M725.698 388.726L706.823 398.311C700.086 401.732 693.584 401.147 691.094 394.014C690.502 392.316 690.283 390.51 690.453 388.72C690.623 386.931 691.178 385.198 692.079 383.643C692.981 382.087 694.208 380.745 695.676 379.707C697.145 378.67 698.82 377.962 700.588 377.632L718.527 374.283L795.356 348.793L841.896 315.792L858.957 342.973L805.181 371.991L725.698 388.726Z" fill="#FFB8B8"/>
<path d="M813.808 706.872L799.366 704.465L800.971 677.187H816.215L813.808 706.872Z" fill="#FFB8B8"/>
<path d="M953.968 680.229L939.992 684.589L929.131 659.516L942.738 652.646L953.968 680.229Z" fill="#FFB8B8"/>
<path d="M946.185 656.327L928.535 663.548L844.295 552.832L817.819 682.803L800.169 679.594C788.846 567.542 779.614 453.25 790.942 399.194L856.329 396.386L886.014 491.056L900.455 555.239L946.185 656.327Z" fill="#2F2E41"/>
<path d="M813.013 728.932C810.373 729.498 807.62 729.206 805.158 728.098L796.579 724.237C789.386 723.868 784.488 725.301 780.483 720.074C779.353 718.58 778.644 716.811 778.428 714.95C778.213 713.09 778.499 711.205 779.257 709.493V709.493C780.009 707.774 781.205 706.287 782.722 705.183C784.239 704.079 786.022 703.399 787.889 703.212L799.672 695.788L800.29 701.354C805.675 704.405 812.069 703.087 818.844 700.117L822.542 713.061C823.019 714.73 823.148 716.479 822.921 718.2C822.694 719.921 822.116 721.576 821.222 723.065C820.329 724.553 819.139 725.842 817.727 726.851C816.315 727.86 814.71 728.569 813.013 728.932Z" fill="#2F2E41"/>
<path d="M959.687 702.381C957.373 703.774 954.675 704.391 951.986 704.142L942.619 703.277C935.695 705.263 931.528 708.209 926.043 704.566C924.489 703.52 923.243 702.077 922.435 700.387C921.627 698.698 921.286 696.822 921.448 694.956C921.601 693.087 922.249 691.291 923.325 689.755C924.401 688.218 925.867 686.996 927.572 686.214L936.305 675.365L938.697 680.429C944.782 681.565 950.401 678.243 955.844 673.234L963.545 684.275C964.538 685.699 965.228 687.311 965.572 689.013C965.916 690.714 965.907 692.468 965.545 694.165C965.184 695.863 964.477 697.468 963.469 698.882C962.461 700.295 961.174 701.486 959.687 702.381V702.381Z" fill="#2F2E41"/>
<path d="M832.26 282.461C848.212 282.461 861.143 269.53 861.143 253.579C861.143 237.628 848.212 224.697 832.26 224.697C816.309 224.697 803.378 237.628 803.378 253.579C803.378 269.53 816.309 282.461 832.26 282.461Z" fill="#FFB8B8"/>
<path d="M867.561 314.553L829.853 306.53L825.04 275.241L851.515 269.625L867.561 314.553Z" fill="#FFB8B8"/>
<path d="M857.131 400.398H789.739L804.929 362.26C803.826 349.137 809.387 339.485 817.348 331.082L827.447 305.728C843.764 294.988 856.066 295.791 869.166 309.739C884.697 331.73 873.946 364.787 857.131 400.398Z" fill="#1E8FFF"/>
<path d="M826.644 481.429L824.728 502.511C824.044 510.036 820.092 515.232 812.726 513.548C810.973 513.147 809.328 512.373 807.902 511.277C806.477 510.182 805.304 508.791 804.466 507.2C803.628 505.61 803.143 503.857 803.045 502.061C802.947 500.266 803.238 498.471 803.898 496.798L810.599 479.824L829.853 401.2L826.644 344.237H858.736L854.724 405.211L826.644 481.429Z" fill="#FFB8B8"/>
<path d="M861.143 345.842H824.237L826.825 321.767C826.995 317.603 828.715 313.654 831.648 310.693C834.582 307.733 838.515 305.977 842.678 305.768V305.768C844.883 305.658 847.089 305.986 849.167 306.734C851.244 307.482 853.153 308.634 854.783 310.125C856.412 311.615 857.73 313.414 858.66 315.417C859.59 317.42 860.113 319.587 860.2 321.794L861.143 345.842Z" fill="#1E8FFF"/>
<path d="M868.006 223.881C874.002 223.881 878.862 219.021 878.862 213.025C878.862 207.03 874.002 202.169 868.006 202.169C862.011 202.169 857.15 207.03 857.15 213.025C857.15 219.021 862.011 223.881 868.006 223.881Z" fill="#2F2E41"/>
<path d="M856.82 210.368C856.998 207.613 858.22 205.03 860.236 203.145C862.252 201.26 864.911 200.214 867.671 200.221C867.447 200.193 867.225 200.158 866.996 200.143C864.124 199.96 861.296 200.925 859.136 202.826C856.975 204.727 855.657 207.409 855.472 210.281C855.288 213.153 856.251 215.981 858.151 218.143C860.051 220.305 862.731 221.624 865.603 221.811C865.832 221.825 866.056 221.82 866.282 221.82C863.544 221.473 861.041 220.096 859.283 217.968C857.525 215.84 856.644 213.122 856.82 210.368V210.368Z" fill="#2F2E41"/>
<path d="M856.759 215.003C847.077 206.971 819.307 217.18 817.515 222.579C804.422 224.364 794.509 232.002 794.509 245.585V245.585C802.293 248.774 811.146 248.381 820.716 245.585C835.971 258.017 837.017 273.645 827.739 291.596L839.153 291.824L853.301 271.146L853.977 292.12L880.141 291.596V261.539C880.225 251.545 877.925 241.675 873.431 232.749C869.354 224.828 863.027 220.203 856.759 215.003Z" fill="#2F2E41"/>
<path d="M832.396 268.108C835.263 268.108 837.587 264.854 837.587 260.84C837.587 256.826 835.263 253.572 832.396 253.572C829.529 253.572 827.204 256.826 827.204 260.84C827.204 264.854 829.529 268.108 832.396 268.108Z" fill="#FFB8B8"/>
<path d="M179.195 270.062C179.195 270.062 182.32 215.972 198.543 228.263C214.767 240.554 191.458 275.079 191.458 275.079L179.195 270.062Z" fill="#FFB9B9"/>
<path d="M118.836 430.507C118.836 430.507 154.874 470.964 134.711 473.745C114.549 476.526 106.617 435.632 106.617 435.632L118.836 430.507Z" fill="#FFB9B9"/>
<path d="M71.8098 239.002C76.3329 240.192 80.4035 242.692 83.5104 246.189C86.6173 249.685 88.622 254.021 89.2727 258.652L100.736 340.244L116.806 405.328C116.806 405.328 124.841 412.559 121.627 416.577C118.413 420.594 125.645 437.468 125.645 437.468L105.557 443.896C105.557 443.896 103.146 427.022 99.129 426.219C95.5982 425.512 56.0744 319.93 46.5475 294.352C45.2339 290.825 44.4906 288.819 44.4906 288.819C44.4906 288.819 46.0976 234.984 71.8098 239.002Z" fill="#575A89"/>
<path d="M75.4789 664.492L87.8173 686.357C97.3721 706.756 88.8813 710.462 65.454 700.35L60.1138 674.532L75.4789 664.492Z" fill="#FFB9B9"/>
<path d="M81.7043 693.552C81.7043 693.552 87.5615 684.015 89.68 685.612C91.7984 687.208 100.536 694.125 100.536 694.125L111.918 705.026C111.918 705.026 150.371 709.091 125.937 722.564C101.503 736.038 88 724.866 88 724.866C88 724.866 53.7776 726.646 54.3296 717.098C54.8816 707.55 65.9186 692.444 65.9186 692.444C65.9186 692.444 79.8289 701.77 81.7043 693.552Z" fill="#2F2E41"/>
<path d="M20.7274 417.339L32.2947 557.302C32.2947 557.302 32.6802 640.972 45.0186 657.166C57.357 673.36 57.7425 681.457 57.7425 681.457L83.1904 668.347C83.1904 668.347 70.0809 646.503 72.7799 643.159C74.4436 641.038 75.6276 638.582 76.2501 635.959L69.3097 549.591L82.4193 399.217L20.7274 417.339Z" fill="#2F2E41"/>
<path d="M52.344 664.492L41.548 693.024L17.064 682.788L29.981 661.407L52.344 664.492Z" fill="#FFB9B9"/>
<path d="M34.3334 683.414C34.3334 683.414 43.5161 677.675 44.664 679.97C45.8118 682.266 50.4032 692.023 50.4032 692.023L55.5685 706.371C55.5685 706.371 87.1343 726.458 60.1599 727.606C33.1855 728.754 26.2985 713.258 26.2985 713.258C26.2985 713.258 -4.11941 700.057 0.472004 692.023C5.06341 683.988 21.1332 675.654 21.1332 675.654C21.1332 675.654 29.1681 689.727 34.3334 683.414Z" fill="#2F2E41"/>
<path d="M118.663 417.724L124.832 546.506C124.832 546.506 68.5386 662.949 62.3694 666.034C60.5311 666.983 58.9016 668.291 57.5772 669.88C56.2527 671.47 55.2601 673.308 54.6579 675.288L20.7274 666.805L36.1504 642.128L70.0809 559.615C70.0809 559.615 75.4789 557.302 77.0213 549.59C78.5636 541.879 81.6482 541.879 73.9367 540.337C66.2252 538.794 66.2252 531.083 66.2252 531.083L40.7773 413.868L118.663 417.724Z" fill="#2F2E41"/>
<path d="M121.35 189.779C124.078 172.963 112.659 157.119 95.8429 154.39C79.0271 151.661 63.1831 163.081 60.4543 179.897C57.7255 196.712 69.1452 212.556 85.9609 215.285C102.777 218.014 118.621 206.594 121.35 189.779Z" fill="#FFB9B9"/>
<path d="M63.5262 186.765C63.5262 186.765 61.2127 226.094 58.1282 229.95C55.0436 233.805 90.5164 233.034 90.5164 233.034C90.5164 233.034 88.2029 199.875 90.5164 196.79C92.8298 193.706 63.5262 186.765 63.5262 186.765Z" fill="#FFB9B9"/>
<path d="M120.974 426.208C120.974 426.208 33.8339 418.498 17.6439 426.208C17.6439 426.208 23.6039 404.098 22.0639 401.788C20.9439 400.098 24.0339 337.118 23.0639 300.788C22.5139 280.288 17.7839 260.268 31.5339 245.048C36.2139 239.878 41.4339 235.538 46.9439 233.418C46.9439 233.418 45.4039 218.768 53.1139 217.998C53.1139 217.998 82.4239 214.908 93.2139 224.168C96.6639 227.108 98.8339 236.068 99.0639 243.788C93.7239 270.048 95.6139 299.188 100.514 329.418C100.814 331.338 101.144 333.268 101.474 335.198C106.674 365.178 114.534 396.088 120.974 426.208Z" fill="#575A89"/>
<path d="M74.7875 193.927C77.3961 193.771 79.9433 194.653 82.5338 194.997C91.8021 196.227 101.444 189.502 103.49 180.379C103.654 179.164 104.016 177.984 104.562 176.886C105.989 174.557 109.237 174.113 111.915 174.649C114.593 175.184 117.132 176.438 119.859 176.581C124.07 176.802 128.113 174.209 130.357 170.639C132.478 166.956 133.379 162.697 132.933 158.471L130.915 160.59C130.094 158.854 129.778 156.923 130.001 155.017C128.931 154.732 127.806 154.726 126.733 155.001C125.661 155.275 124.677 155.82 123.875 156.584C122.095 156.774 123.439 153.283 122.116 152.076C121.473 151.681 120.707 151.537 119.964 151.673C116.177 151.71 113.114 148.813 110.13 146.482C104.96 142.451 98.9136 139.693 92.4803 138.431C88.2043 137.597 83.6573 137.463 79.6021 139.055C76.3285 140.525 73.3741 142.621 70.9052 145.225C64.5564 151.329 58.9344 158.502 56.2932 166.905C54.1459 173.787 54.0851 181.151 56.1184 188.068C57.1826 191.66 60.3901 203.962 65.0857 204.248C70.9859 204.608 67.4435 194.365 74.7875 193.927Z" fill="#2F2E41"/>
<path d="M87.5553 242.788L98.6064 243.972C98.6064 243.972 109.455 265.018 108.667 269.408C107.879 273.798 106.163 271.133 111.046 278.156C115.929 285.18 129.784 303.335 131.499 306C133.215 308.665 179.988 272.978 177.08 262.286C177.08 262.286 191.852 272.883 198.181 274.294C198.181 274.294 149.978 337.512 143.26 345.602C136.543 353.693 131.137 352.031 121.906 347.234C112.674 342.437 65.973 294.59 65.973 294.59L87.5553 242.788Z" fill="#575A89"/>
<path opacity="0.1" d="M101.474 335.198L63.0639 296.788L72.7839 293.618L100.514 329.418C100.814 331.338 101.144 333.268 101.474 335.198Z" fill="black"/>
</g>
<defs>
<clipPath id="clip0_70_25">
<rect width="965.825" height="729.214" fill="white"/>
</clipPath>
</defs>
</svg>
